<?xml version="1.0" encoding="UTF-8" standalone="no"?>
<svg
   xmlns="http://www.w3.org/2000/svg"
   version="1.1"
   width="41"
   height="41"
   viewBox="0 0 41 41">
    <path
     d="M 20.36,0 C 9.1175,0 0,9.11625 0,20.3625 c 0,8.995 5.83375,16.6275 13.925,19.32125 1.01875,0.18625 1.39,-0.4425 1.39,-0.9825 0,-0.48375 -0.0175,-1.76375 -0.0275,-3.4625 -5.66375,1.23 -6.85875,-2.73 -6.85875,-2.73 C 7.5025,30.15625 6.1675,29.53 6.1675,29.53 c -1.84875,-1.2625 0.14,-1.2375 0.14,-1.2375 2.04375,0.14375 3.11875,2.09875 3.11875,2.09875 1.81625,3.11125 4.76625,2.2125 5.92625,1.69125 0.185,-1.315 0.71125,-2.2125 1.2925,-2.72125 C 12.12375,28.84625 7.37,27.1 7.37,19.2975 c 0,-2.22375 0.79375,-4.04 2.09625,-5.46375 -0.21,-0.515 -0.90875,-2.585 0.2,-5.38875 0,0 1.70875,-0.5475 5.59875,2.08625 C 16.88875,10.08 18.63125,9.855 20.3625,9.84625 22.0925,9.855 23.83375,10.08 25.46,10.53125 29.3475,7.8975 31.05375,8.445 31.05375,8.445 c 1.11125,2.80375 0.4125,4.87375 0.20375,5.38875 1.305,1.42375 2.0925,3.24 2.0925,5.46375 0,7.8225 -4.76125,9.54375 -9.29625,10.0475 0.73,0.62875 1.38125,1.87125 1.38125,3.77125 0,2.72125 -0.025,4.9175 -0.025,5.585 0,0.545 0.3675,1.17875 1.4,0.98 C 34.895,36.9825 40.72375,29.35625 40.72375,20.3625 40.72375,9.11625 31.60625,0 20.36,0"
     style="fill:#1b1817;fill-opacity:1;stroke:none" />
</svg>